<?xml version="1.0" standalone="no"?><!DOCTYPE svg PUBLIC "-//W3C//DTD SVG 1.1//EN" "http://www.w3.org/Graphics/SVG/1.1/DTD/svg11.dtd"><svg t="1587538380086" class="icon" viewBox="0 0 1024 1024" version="1.1" xmlns="http://www.w3.org/2000/svg" p-id="4286" xmlns:xlink="http://www.w3.org/1999/xlink" width="64" height="64"><defs><style type="text/css"></style></defs><path d="M778.666667 896h-533.333334A117.546667 117.546667 0 0 1 128 778.666667v-533.333334A117.546667 117.546667 0 0 1 245.333333 128h533.333334a117.546667 117.546667 0 0 1 117.333333 117.333333v533.333334a117.546667 117.546667 0 0 1-117.333333 117.333333z m-533.333334-704A53.333333 53.333333 0 0 0 192 245.333333v533.333334a53.333333 53.333333 0 0 0 53.333333 53.333333h533.333334a53.333333 53.333333 0 0 0 53.333333-53.333333v-533.333334A53.333333 53.333333 0 0 0 778.666667 192z" fill="#3C3D3F" p-id="4287"></path><path d="M295.253333 674.773333V349.226667h139.093334a101.333333 101.333333 0 0 1 71.68 29.653333 104.746667 104.746667 0 0 1 30.72 73.6 118.826667 118.826667 0 0 1-27.306667 74.666667 90.24 90.24 0 0 1-70.4 33.493333h-66.56v114.133333z m77.226667-176h30.933333a66.56 66.56 0 0 0 38.4-10.24 42.666667 42.666667 0 0 0 18.56-36.053333 37.12 37.12 0 0 0-31.573333-37.333333 205.226667 205.226667 0 0 0-56.32-4.266667zM643.626667 450.986667a29.226667 29.226667 0 0 0-29.866667 27.306666 28.586667 28.586667 0 0 0 27.306667 25.813334 171.946667 171.946667 0 0 1 58.453333 23.893333 65.92 65.92 0 0 1 29.226667 55.68 85.333333 85.333333 0 0 1-30.293334 64 108.8 108.8 0 0 1-70.186666 25.173333A125.44 125.44 0 0 1 536.746667 640l25.6-51.413333a49.28 49.28 0 0 0 21.333333 23.04 65.28 65.28 0 0 0 34.56 10.666666 51.84 51.84 0 0 0 29.013333-7.68 28.8 28.8 0 0 0 14.08-24.533333 26.026667 26.026667 0 0 0-17.706666-25.6 351.146667 351.146667 0 0 1-64-21.333333 59.306667 59.306667 0 0 1-34.346667-55.68 82.56 82.56 0 0 1 29.013333-62.72 103.68 103.68 0 0 1 67.413334-24.96 121.386667 121.386667 0 0 1 74.88 21.333333l-21.333334 48.213333a75.52 75.52 0 0 0-51.626666-18.346666z" fill="#3C3D3F" p-id="4288"></path></svg>