<?xml version="1.0" standalone="no"?><!DOCTYPE svg PUBLIC "-//W3C//DTD SVG 1.1//EN" "http://www.w3.org/Graphics/SVG/1.1/DTD/svg11.dtd"><svg t="1592292383159" class="icon" viewBox="0 0 1024 1024" version="1.1" xmlns="http://www.w3.org/2000/svg" p-id="4609" width="24" height="24" xmlns:xlink="http://www.w3.org/1999/xlink"><defs><style type="text/css"></style></defs><path d="M923.47904 159.0272l-34.0224 35.2256h-222.16192l-145.1008-145.73568L377.10336 194.2528H132.89984l-34.01728-35.2256h-26.30656v105.72288h26.30656l34.56512-35.26656h9.30304v220.71296c-10.0096 2.04288-17.54112 10.9312-17.54112 21.5808s7.53152 19.53792 17.54112 21.5808v0.89088a21.9904 21.9904 0 0 0-17.54112 21.57568v268.71808h8.76032v-176.2304h8.7808v185.0112h8.76032v-185.0112h8.78592v176.2304h8.7808V515.82464a22.01088 22.01088 0 0 0-17.56672-21.5808v-0.88576c10.02496-2.03264 17.56672-10.92096 17.56672-21.5808s-7.54688-19.55328-17.56672-21.58592V229.48352h61.4144v634.32704l298.99264 114.54464 297.51296-114.54464V229.48352h61.43488v220.71296a21.99552 21.99552 0 0 0-17.5616 21.58592 21.99552 21.99552 0 0 0 17.5616 21.5808v0.88064a21.99552 21.99552 0 0 0-17.5616 21.5808v268.71808h8.7808v-176.2304h8.7808v185.0112h8.74496v-185.0112h8.7808v176.2304h8.7808V515.82464a22.00576 22.00576 0 0 0-17.5616-21.5808v-0.88576a21.99552 21.99552 0 0 0 17.5616-21.57568 22.00576 22.00576 0 0 0-17.5616-21.58592V229.48352h9.29792l34.57024 35.26656h26.30656V159.0272h-26.30656z m-401.28-98.03264l132.72576 133.25824H389.4784l132.72064-133.25824z m-247.8592 802.52928l-43.86816-17.34656V229.48352h43.86816v634.04032z m517.57056-17.34144l-43.86816 17.35168V229.48352h43.86816V846.1824z" fill="#e0620d" p-id="4610"></path></svg>